<?xml version="1.0" encoding="UTF-8" standalone="no" ?>
<!DOCTYPE svg PUBLIC "-//W3C//DTD SVG 1.1//EN" "http://www.w3.org/Graphics/SVG/1.1/DTD/svg11.dtd">
<svg xmlns="http://www.w3.org/2000/svg" xmlns:xlink="http://www.w3.org/1999/xlink" version="1.1" width="500" height="500" viewBox="0 0 500 500" xml:space="preserve">
<desc>Created with Fabric.js 3.6.3</desc>
<defs>
</defs>
<g transform="matrix(4.09875092814 0 0 4.09875092814 250 250)"  >
<g style=""   >
		<g transform="matrix(1.3333333333333335 0 0 1.3333333333333335 -0.0020000000000095497 -0.001999999999995339)"  >
<path style="stroke: none; stroke-width: 1; stroke-dasharray: none; stroke-linecap: butt; stroke-dashoffset: 0; stroke-linejoin: miter; stroke-miterlimit: 4; fill: rgb(0,0,0); fill-rule: nonzero; opacity: 1;"  transform=" translate(-49.99849999999999, -49.9985)" d="m 65.395 8.332 h -30.793 c -5.8945 0 -10.688 4.793 -10.688 10.688 v 61.957 c 0 5.8945 4.793 10.688 10.688 10.688 h 30.793 c 5.8945 0 10.688 -4.793 10.688 -10.688 v -61.957 c 0 -5.8945 -4.793 -10.688 -10.688 -10.688 z m 6.5195 72.645 c 0 3.6055 -2.918 6.5195 -6.5195 6.5195 h -30.793 c -3.6055 0 -6.5195 -2.918 -6.5195 -6.5195 v -61.957 c 0 -3.6055 2.918 -6.5195 6.5195 -6.5195 h 2.0195 l 1.1875 3.207 c 0.70703 2.1055 2.7305 3.5195 5.043 3.5195 h 14.293 c 2.3125 0 4.332 -1.418 5 -3.4375 l 1.2305 -3.293 h 2.0195 c 3.6055 0 6.5195 2.918 6.5195 6.5195 z" stroke-linecap="round" />
</g>
		<g transform="matrix(1.3333333333333335 0 0 1.3333333333333335 -0.00006666666665644527 41.226666666666674)"  >
<path style="stroke: none; stroke-width: 1; stroke-dasharray: none; stroke-linecap: butt; stroke-dashoffset: 0; stroke-linejoin: miter; stroke-miterlimit: 4; fill: rgb(0,0,0); fill-rule: nonzero; opacity: 1;"  transform=" translate(-49.999950000000005, -80.92)" d="m 54.332 78.836 h -8.6641 c -2.7344 0.046874 -2.7383 4.1211 0 4.168 h 8.6641 c 2.7344 -0.046875 2.7383 -4.1211 0 -4.168 z" stroke-linecap="round" />
</g>
</g>
</g>
<g transform="matrix(8.303884675191476 0 0 8.303884675191476 250 250)"  >
<path style="stroke: none; stroke-width: 0; stroke-dasharray: none; stroke-linecap: butt; stroke-dashoffset: 0; stroke-linejoin: miter; stroke-miterlimit: 4; fill: rgb(255,140,0); fill-rule: nonzero; opacity: 1;"  transform=" translate(-16, -16)" d="M 29 26.5 c 0 1.378 -1.122 2.5 -2.5 2.5 h -21 C 4.122 29 3 27.878 3 26.5 S 4.122 24 5.5 24 h 21 C 27.878 24 29 25.122 29 26.5 z M 3 21 c 0 -5.381 3.056 -10.024 7.453 -12.191 C 10.168 8.253 10 7.639 10 7 c 0 -1.067 0.417 -2.071 1.173 -2.827 S 12.933 3 14 3 h 4 c 2.206 0 4 1.794 4 4 c 0 0.639 -0.168 1.253 -0.453 1.809 C 25.944 10.976 29 15.619 29 21 c 0 0.552 -0.448 1 -1 1 H 4 C 3.448 22 3 21.552 3 21 z M 16 11 c -0.552 0 -1 0.448 -1 1 s 0.448 1 1 1 c 2.492 0 4.816 1.342 6.065 3.502 c 0.186 0.321 0.521 0.5 0.867 0.5 c 0.17 0 0.342 -0.043 0.5 -0.134 c 0.478 -0.276 0.642 -0.888 0.365 -1.366 C 22.191 12.725 19.204 11 16 11 z M 12 7 c 0 0.381 0.117 0.747 0.316 1.061 C 13.485 7.701 14.72 7.5 16 7.5 s 2.515 0.201 3.684 0.561 C 19.883 7.747 20 7.381 20 7 c 0 -1.103 -0.897 -2 -2 -2 h -4 c -0.533 0 -1.035 0.208 -1.413 0.587 S 12 6.467 12 7 z" stroke-linecap="round" />
</g>
</svg>