<?xml version="1.0" encoding="UTF-8" standalone="no" ?>
<!DOCTYPE svg PUBLIC "-//W3C//DTD SVG 1.1//EN" "http://www.w3.org/Graphics/SVG/1.1/DTD/svg11.dtd">
<svg xmlns="http://www.w3.org/2000/svg" xmlns:xlink="http://www.w3.org/1999/xlink" version="1.1" width="500" height="500" viewBox="0 0 500 500" xml:space="preserve">
<desc>Created with Fabric.js 3.6.3</desc>
<defs>
</defs>
<g transform="matrix(2.6175009281399997 0 0 2.6175009281399997 249.99999999999997 209.500061876)"  >
<g style=""   >
		<g transform="matrix(1.3333333333333335 0 0 1.3333333333333335 -0.0020000000000095497 -0.001999999999995339)"  >
<path style="stroke: none; stroke-width: 1; stroke-dasharray: none; stroke-linecap: butt; stroke-dashoffset: 0; stroke-linejoin: miter; stroke-miterlimit: 4; fill: rgb(0,0,0); fill-rule: nonzero; opacity: 1;"  transform=" translate(-49.99849999999999, -49.9985)" d="m 65.395 8.332 h -30.793 c -5.8945 0 -10.688 4.793 -10.688 10.688 v 61.957 c 0 5.8945 4.793 10.688 10.688 10.688 h 30.793 c 5.8945 0 10.688 -4.793 10.688 -10.688 v -61.957 c 0 -5.8945 -4.793 -10.688 -10.688 -10.688 z m 6.5195 72.645 c 0 3.6055 -2.918 6.5195 -6.5195 6.5195 h -30.793 c -3.6055 0 -6.5195 -2.918 -6.5195 -6.5195 v -61.957 c 0 -3.6055 2.918 -6.5195 6.5195 -6.5195 h 2.0195 l 1.1875 3.207 c 0.70703 2.1055 2.7305 3.5195 5.043 3.5195 h 14.293 c 2.3125 0 4.332 -1.418 5 -3.4375 l 1.2305 -3.293 h 2.0195 c 3.6055 0 6.5195 2.918 6.5195 6.5195 z" stroke-linecap="round" />
</g>
		<g transform="matrix(1.3333333333333335 0 0 1.3333333333333335 -0.00006666666665644527 41.226666666666674)"  >
<path style="stroke: none; stroke-width: 1; stroke-dasharray: none; stroke-linecap: butt; stroke-dashoffset: 0; stroke-linejoin: miter; stroke-miterlimit: 4; fill: rgb(0,0,0); fill-rule: nonzero; opacity: 1;"  transform=" translate(-49.999950000000005, -80.92)" d="m 54.332 78.836 h -8.6641 c -2.7344 0.046874 -2.7383 4.1211 0 4.168 h 8.6641 c 2.7344 -0.046875 2.7383 -4.1211 0 -4.168 z" stroke-linecap="round" />
</g>
</g>
</g>
<g transform="matrix(5.427074782458215 0 0 5.427074782458215 250 209.50006187599996)"  >
<path style="stroke: none; stroke-width: 0; stroke-dasharray: none; stroke-linecap: butt; stroke-dashoffset: 0; stroke-linejoin: miter; stroke-miterlimit: 4; fill: rgb(255,140,0); fill-rule: nonzero; opacity: 1;"  transform=" translate(-16, -16)" d="M 29 26.5 c 0 1.378 -1.122 2.5 -2.5 2.5 h -21 C 4.122 29 3 27.878 3 26.5 S 4.122 24 5.5 24 h 21 C 27.878 24 29 25.122 29 26.5 z M 3 21 c 0 -5.381 3.056 -10.024 7.453 -12.191 C 10.168 8.253 10 7.639 10 7 c 0 -1.067 0.417 -2.071 1.173 -2.827 S 12.933 3 14 3 h 4 c 2.206 0 4 1.794 4 4 c 0 0.639 -0.168 1.253 -0.453 1.809 C 25.944 10.976 29 15.619 29 21 c 0 0.552 -0.448 1 -1 1 H 4 C 3.448 22 3 21.552 3 21 z M 16 11 c -0.552 0 -1 0.448 -1 1 s 0.448 1 1 1 c 2.492 0 4.816 1.342 6.065 3.502 c 0.186 0.321 0.521 0.5 0.867 0.5 c 0.17 0 0.342 -0.043 0.5 -0.134 c 0.478 -0.276 0.642 -0.888 0.365 -1.366 C 22.191 12.725 19.204 11 16 11 z M 12 7 c 0 0.381 0.117 0.747 0.316 1.061 C 13.485 7.701 14.72 7.5 16 7.5 s 2.515 0.201 3.684 0.561 C 19.883 7.747 20 7.381 20 7 c 0 -1.103 -0.897 -2 -2 -2 h -4 c -0.533 0 -1.035 0.208 -1.413 0.587 S 12 6.467 12 7 z" stroke-linecap="round" />
</g>
<g transform="matrix(0.5 0 0 0.5 250 384.5953753013016)"  >
<g style=""   >
		<g transform="matrix(1 0 0 1 -135.21714033299003 -4.263256e-14)" style=""  ><path fill="#FF8C00" opacity="1" d="M-165.06 1.19L-165.06-7.21L-131.46-7.21L-131.46 9.59Q-131.46 12.95-132.76 15.97Q-134.06 19.00-136.33 21.31Q-138.60 23.62-141.67 25.00Q-144.73 26.39-148.26 26.39L-148.26 26.39L-173.46 26.39Q-176.82 26.39-179.89 25.09Q-182.95 23.78-185.26 21.52Q-187.57 19.25-188.92 16.18Q-190.26 13.12-190.26 9.59L-190.26 9.59L-190.26-15.61Q-190.26-18.97-188.96-22.00Q-187.66-25.02-185.39-27.33Q-183.12-29.64-180.05-31.03Q-176.99-32.41-173.46-32.41L-173.46-32.41L-148.26-32.41Q-144.90-32.41-141.88-31.11Q-138.85-29.81-136.58-27.54Q-134.32-25.27-132.93-22.21Q-131.54-19.14-131.46-15.61L-131.46-15.61L-139.86-15.61Q-139.86-19.14-142.30-21.58Q-144.73-24.01-148.26-24.01L-148.26-24.01L-173.46-24.01Q-176.99-24.01-179.42-21.58Q-181.86-19.14-181.86-15.61L-181.86-15.61L-181.86 9.59Q-181.86 13.12-179.42 15.55Q-176.99 17.99-173.46 17.99L-173.46 17.99L-148.26 17.99Q-144.73 17.99-142.30 15.55Q-139.86 13.12-139.86 9.59L-139.86 9.59L-139.86 1.19L-165.06 1.19Z"/><path fill="#FF8C00" opacity="1" d="M-81.90-24.01L-107.10-24.01Q-110.63-24.01-113.06-21.58Q-115.50-19.14-115.50-15.61L-115.50-15.61L-115.50 1.19L-73.50 1.19L-73.50-15.61Q-73.50-19.14-75.94-21.58Q-78.37-24.01-81.90-24.01L-81.90-24.01ZM-65.10-15.61L-65.10 26.39L-73.50 26.39L-73.50 9.59L-115.50 9.59L-115.50 26.39L-123.90 26.39L-123.90-15.61Q-123.90-18.97-122.60-22.00Q-121.30-25.02-119.03-27.33Q-116.76-29.64-113.69-31.03Q-110.63-32.41-107.10-32.41L-107.10-32.41L-81.90-32.41Q-78.54-32.41-75.52-31.11Q-72.49-29.81-70.22-27.54Q-67.96-25.27-66.57-22.21Q-65.18-19.14-65.10-15.61L-65.10-15.61Z"/><path fill="#FF8C00" opacity="1" d="M1.26 9.59L1.26 9.59Q1.26 12.95-0.04 15.97Q-1.34 19.00-3.61 21.31Q-5.88 23.62-8.95 25.00Q-12.01 26.39-15.54 26.39L-15.54 26.39L-40.74 26.39Q-44.18 26.39-47.21 25.09Q-50.23 23.78-52.50 21.52Q-54.77 19.25-56.11 16.18Q-57.46 13.12-57.54 9.59L-57.54 9.59L-49.14 9.59Q-49.14 13.12-46.70 15.55Q-44.27 17.99-40.74 17.99L-40.74 17.99L-15.54 17.99Q-12.01 17.99-9.58 15.55Q-7.14 13.12-7.14 9.59L-7.14 9.59Q-7.14 6.06-9.58 3.62Q-12.01 1.19-15.54 1.19L-15.54 1.19L-40.74 1.19Q-44.10 1.19-47.17-0.11Q-50.23-1.42-52.54-3.68Q-54.85-5.95-56.20-9.02Q-57.54-12.08-57.54-15.61L-57.54-15.61Q-57.54-18.97-56.24-22.00Q-54.94-25.02-52.67-27.33Q-50.40-29.64-47.33-31.03Q-44.27-32.41-40.74-32.41L-40.74-32.41L-15.54-32.41Q-12.18-32.41-9.16-31.11Q-6.13-29.81-3.86-27.54Q-1.60-25.27-0.21-22.21Q1.18-19.14 1.26-15.61L1.26-15.61L-7.14-15.61Q-7.14-19.14-9.58-21.58Q-12.01-24.01-15.54-24.01L-15.54-24.01L-40.74-24.01Q-44.27-24.01-46.70-21.58Q-49.14-19.14-49.14-15.61L-49.14-15.61Q-49.14-12.08-46.70-9.65Q-44.27-7.21-40.74-7.21L-40.74-7.21L-15.54-7.21Q-12.26-7.21-9.20-5.91Q-6.13-4.61-3.82-2.34Q-1.51-0.07-0.13 2.99Q1.26 6.06 1.26 9.59Z"/><path fill="#FF8C00" opacity="1" d="M61.74-24.01L36.54-24.01L36.54 26.39L28.14 26.39L28.14-24.01L2.94-24.01L2.94-32.41L61.74-32.41L61.74-24.01Z"/><path fill="#FF8C00" opacity="1" d="M116.34-7.21L116.34-15.61Q116.34-19.14 113.90-21.58Q111.47-24.01 107.94-24.01L107.94-24.01L74.34-24.01L74.34 1.19L107.94 1.19Q111.47 1.19 113.90-1.25Q116.34-3.68 116.34-7.21L116.34-7.21ZM124.74 26.39L118.78 26.39L101.98 9.59L74.34 9.59L74.34 26.39L65.94 26.39L65.94-32.41L107.94-32.41Q111.22-32.41 114.28-31.11Q117.35-29.81 119.66-27.54Q121.97-25.27 123.35-22.21Q124.74-19.14 124.74-15.61L124.74-15.61L124.74-7.21Q124.74-4.52 123.90-2.05Q123.06 0.43 121.51 2.53Q119.95 4.63 117.81 6.27Q115.67 7.91 113.06 8.75L113.06 8.75L124.74 20.42L124.74 26.39Z"/><path fill="#FF8C00" opacity="1" d="M181.86 9.59L181.86-15.61Q181.86-19.14 179.42-21.58Q176.99-24.01 173.46-24.01L173.46-24.01L148.26-24.01Q144.73-24.01 142.30-21.58Q139.86-19.14 139.86-15.61L139.86-15.61L139.86 9.59Q139.86 13.12 142.30 15.55Q144.73 17.99 148.26 17.99L148.26 17.99L173.46 17.99Q176.99 17.99 179.42 15.55Q181.86 13.12 181.86 9.59L181.86 9.59ZM190.26-15.61L190.26 9.59Q190.26 13.03 188.92 16.10Q187.57 19.16 185.30 21.43Q183.04 23.70 179.97 25.04Q176.90 26.39 173.46 26.39L173.46 26.39L148.26 26.39Q144.73 26.39 141.67 25.09Q138.60 23.78 136.33 21.52Q134.06 19.25 132.76 16.18Q131.46 13.12 131.46 9.59L131.46 9.59L131.46-15.61Q131.46-19.06 132.80-22.12Q134.15-25.19 136.42-27.46Q138.68-29.72 141.75-31.07Q144.82-32.41 148.26-32.41L148.26-32.41L173.46-32.41Q176.82-32.41 179.84-31.07Q182.87-29.72 185.18-27.46Q187.49-25.19 188.87-22.12Q190.26-19.06 190.26-15.61L190.26-15.61Z"/></g>		<g transform="matrix(1 0 0 1 194.7828596670099 -4.263256e-14)" style=""  ><path fill="#000000" opacity="1" d="M-122.22-24.01L-122.22-7.21L-80.22-7.21L-80.22 1.19L-122.22 1.19L-122.22 17.99L-71.82 17.99L-71.82 26.39L-130.62 26.39L-130.62-32.41L-71.82-32.41L-71.82-24.01L-122.22-24.01Z"/><path fill="#000000" opacity="1" d="M-56.70-32.41L-56.70 17.99L-6.30 17.99L-6.30 26.39L-65.10 26.39L-65.10-32.41L-56.70-32.41Z"/><path fill="#000000" opacity="1" d="M-2.10 26.39L-2.10-32.41L6.30-32.41L6.30 26.39L-2.10 26.39Z"/><path fill="#000000" opacity="1" d="M69.30-24.01L44.10-24.01L44.10 26.39L35.70 26.39L35.70-24.01L10.50-24.01L10.50-32.41L69.30-32.41L69.30-24.01Z"/><path fill="#000000" opacity="1" d="M81.90-24.01L81.90-7.21L123.90-7.21L123.90 1.19L81.90 1.19L81.90 17.99L132.30 17.99L132.30 26.39L73.50 26.39L73.50-32.41L132.30-32.41L132.30-24.01L81.90-24.01Z"/></g></g>
</g>
</svg>